<?xml version="1.0" encoding="UTF-8"?><svg id="Layer_2" xmlns="http://www.w3.org/2000/svg" viewBox="0 0 1024 1022.92"><defs><style>.cls-1{fill:#fff6db;}</style></defs><g id="Layer_1-2"><g><path class="cls-1" d="M1024,439v143c-.34,1.26-.81,2.51-1.01,3.8-3.99,25.77-9.86,51.08-20.68,74.91-28.58,62.93-75.02,97.48-146.71,96.68-111.65-1.24-223.32-.32-334.98-.31-2.41,0-4.82,0-7.23,0v34.96c2.58,0,4.85,0,7.13,0,78.33,0,156.66,.01,234.99,.02,6.54,0,6.56,.02,6.57,6.48,.08,36.5-.25,73,.41,109.49,.33,18.46-5.31,34.33-16.36,48.63-8.99,11.63-20.27,20.68-32.86,28.1-28.16,16.59-59.1,25.16-91.02,30.12-66.13,10.29-132.43,10.77-198.68,1.05-32.8-4.81-64.6-13.36-93.87-29.54-23.54-13.01-43.05-30.15-54.99-54.87-7.44-15.4-9.06-31.61-8.96-48.58,.42-73.16,.1-146.33,.26-219.49,.02-9.96,.56-20.03,2.05-29.87,6.09-40.28,26.9-70.4,63.36-89.15,24.64-12.68,51.04-18.05,78.62-18.05,79.83,0,159.66,.11,239.49-.09,11.45-.03,23.04-.71,34.33-2.53,39.59-6.4,70.58-26.01,90.49-61.47,14-24.94,20.45-51.98,20.62-80.45,.22-38.66,.05-77.33,.05-116q0-7.18,6.94-7.2c27.17-.02,54.33-.08,81.5-.02,4.15,0,8.35,.26,12.44,.9,31.81,5.03,57.1,21.28,77.38,45.73,23.34,28.14,35.79,61.36,43.7,96.5,2.78,12.32,4.71,24.83,7.02,37.26Zm-368.77,415.19c-24.63-.17-44.99,20.08-45.01,44.73-.01,24.45,19.95,44.53,44.49,44.76,24.56,.23,45.01-20.1,45.01-44.74,0-24.47-20-44.58-44.49-44.75Z"/><path class="cls-1" d="M485,0c16.33,0,32.67,0,49,0,4.14,.35,8.27,.82,12.41,1.04,34.19,1.74,68.05,5.75,101.1,15.1,28.49,8.06,55.41,19.43,77.88,39.3,22.29,19.72,36.41,43.88,36.48,74.39,.17,75.66,0,151.33-.22,226.99-.03,10.14-.52,20.36-1.92,30.39-5.34,38.28-23.92,68.12-57.83,87.57-25.15,14.43-52.57,20.9-81.36,20.98-80.83,.22-161.66,.02-242.49,.2-10.46,.02-21.03,.57-31.37,2.11-41.57,6.17-73.99,26.37-94.37,63.85-13.56,24.94-19.66,51.89-19.7,80.22-.05,38-.02,76-.03,114,0,7.66-.02,7.67-7.86,7.67-25.5,0-51-.11-76.5,.05-20.37,.12-39.18-5.34-56.69-15.44-28.37-16.36-47.37-41.02-61.08-70.13-17.73-37.64-24.98-77.83-28.38-118.92C1.35,550.57,.69,541.78,0,533c0-14.67,0-29.33,0-44,.29-1.97,.67-3.92,.86-5.9,1.43-15.25,2.26-30.58,4.35-45.73,4.55-32.89,13.24-64.61,29.63-93.78,20.75-36.94,50.45-62.81,92.06-73.83,15.15-4.01,30.54-4.07,46.09-4.03,110.8,.25,221.6,.16,332.41,.18,1.33,0,2.68-.13,4,.02,4.24,.46,5.98-1.1,5.8-5.61-.31-8.15-.29-16.33,0-24.49,.15-4.35-1.27-6.22-5.67-5.75-1.81,.19-3.66,.02-5.49,.02-76.48,.01-152.96,.03-229.44,.03-9.81,0-8.48,.41-8.51-8.71-.12-35.32,.4-70.66-.44-105.97-.52-21.95,7.12-40.02,21.64-55.65,17.73-19.09,40.31-30.3,64.5-38.64,33.48-11.54,68.21-16.5,103.36-19.09C465.09,1.33,475.04,.69,485,0Zm-111.94,168.49c24.82-.08,44.88-20.12,44.88-44.83,0-24.91-20.27-44.95-45.34-44.83-24.75,.12-44.7,20.27-44.6,45.04,.1,24.7,20.3,44.7,45.06,44.62Z"/></g></g></svg>