<?xml version="1.0" encoding="UTF-8"?><svg id="Layer_2" xmlns="http://www.w3.org/2000/svg" viewBox="0 0 403.72 222.53"><defs><style>.cls-1{fill:#fff6db;}</style></defs><g id="Layer_1-2"><g><path class="cls-1" d="M.01,71.5c1.17-.46,2.33-.96,3.52-1.38C50.38,53.31,97.21,36.49,144.07,19.73c18.22-6.52,36.47-12.96,54.77-19.26,1.87-.64,4.36-.62,6.23,.04,64.99,23.18,129.93,46.47,194.88,69.76,1.05,.38,2.06,.86,3.77,1.59-1.63,.71-2.61,1.22-3.63,1.58-64.85,22.78-129.69,45.57-194.58,68.22-2.2,.77-5.13,.73-7.34-.03-50.1-17.31-100.14-34.78-150.2-52.22-1.42-.49-2.87-.91-4.86-1.53,0,1.95,0,3.34,0,4.72,0,24.07,.02,48.14-.02,72.21-.01,7.13-3.36,11.1-9.16,11.15-4.71,.05-8.5-3.17-9.13-7.88-.2-1.54-.17-3.12-.17-4.67,0-26.02-.06-52.04,.07-78.06,.02-3.08-.75-4.61-3.82-5.58-7.03-2.22-13.93-4.87-20.88-7.35v-.91Z"/><path class="cls-1" d="M70.96,116.98c13.66,4.84,26.73,9.49,39.83,14.09,29.41,10.34,58.82,20.68,88.28,30.88,1.76,.61,4.11,.52,5.88-.1,40.46-14.2,80.87-28.52,121.29-42.81,1.81-.64,3.63-1.23,5.83-1.98,0,9.81,0,19.15,0,28.49,0,7.03-.4,14.08,.09,21.07,.75,10.73-4.12,18.45-11.93,24.91-11.01,9.1-23.82,14.76-37.25,19.04-31.94,10.19-64.74,13.37-98.12,11.43-22-1.28-43.66-4.49-64.66-11.36-13.14-4.3-25.74-9.76-36.67-18.51-8.37-6.71-13.16-14.77-12.73-26.13,.62-16.1,.16-32.25,.16-49Z"/></g></g></svg>