<?xml version="1.0" encoding="UTF-8"?><svg id="Layer_2" xmlns="http://www.w3.org/2000/svg" viewBox="0 0 247.76 299.31"><defs><style>.cls-1{fill:#fff6db;}</style></defs><g id="Layer_1-2"><g><path class="cls-1" d="M108.23,113.56c-1.04-2.16-2.7-4.27-3.06-6.59-1.16-7.28-6.02-10.88-12.31-12.86-6.26-1.97-7.37-5.87-7.66-12.1-.38-8.05,1.7-12.98,9.61-15.22,5.34-1.51,7.84-5.32,10.12-10.52,2.64-6.04,2.68-10.97,.35-16.87-3.57-9.04-2.5-11.44,5.57-17.2,.31-.22,.86-.22,1.03-.49,3.49-5.68,8.12-4.01,12.73-1.92,5.9,2.67,11.13,2.65,17.63,.11,6.53-2.55,9.53-6.82,11.5-12.34,2.13-5.98,5.74-7.21,11.84-7.5,8.16-.39,13.26,1.69,15.54,9.79,1.51,5.39,5.64,7.65,10.65,10.03,6.22,2.96,11.61,2.93,17.2-.08,6-3.23,9.76-1.25,14.67,3.11,6.45,5.73,7.85,11.14,3.61,18.22-5.03,8.4,1.64,14.81,3.96,21.78,.68,2.05,4.8,3.39,7.59,4.22,7.29,2.18,8.96,6.75,8.96,14.11,0,7.15-1.81,11.3-8.69,13.5-5.26,1.69-8.54,5.07-11.17,10.65-3.22,6.85-2.93,12.53,.14,18.61,2.7,5.35,.92,8.59-2.97,12.93-5.85,6.53-11.38,8.24-18.99,3.92-4.47-2.54-8.6-1.18-13.46,.34-7.26,2.26-11.08,6.7-13.2,13.19-1.83,5.59-5.35,6.53-10.92,7.01-8.86,.76-14.2-1.87-16.59-10.48-1.36-4.9-5.29-6.63-9.62-8.95-6.71-3.6-12.67-3.26-18.58,.11-6.1,3.47-9.92,.49-14.03-3.29-7.69-7.06-7.74-7-4.29-16.96,.93-2.7,1.86-5.39,2.84-8.26Zm58.58-60.96c-14.93,.02-28.17,13.01-28.24,27.72-.08,16.1,12.76,29.22,28.42,29.04,15.02-.17,28.12-13.03,28.26-27.76,.15-15.94-12.67-29.02-28.44-29Z"/><path class="cls-1" d="M80.33,298.69c-7.61,2.24-11.13-1.88-13.44-8.36-1.81-5.09-5.03-8.21-10.38-10.86-7.76-3.85-14.2-2.05-21.01,.68-3.82,1.53-6.53,1.15-9.06-2.15-1.57-2.05-3.47-3.92-5.51-5.51-3.21-2.5-3.71-5.12-2.37-9.05,4.52-13.32,4.38-13.39-1.36-25.95-.48-1.05-1.61-2.01-2.66-2.57-3.89-2.09-7.99-3.82-11.78-6.07-1.24-.74-2.4-2.62-2.5-4.06-.32-4.4-.33-8.85,0-13.25,.11-1.42,1.58-2.79,2.56-4.07,.36-.46,1.12-.62,1.7-.91q12.67-6.32,17.54-19.54c.4-1.09,.27-2.54-.07-3.7-1.22-4.23-2.83-8.36-3.87-12.64-.34-1.42,.1-3.61,1.05-4.66,3.49-3.84,6.83-9.27,11.2-10.43,4.13-1.09,9.53,2.3,14.27,4.01,2.55,.92,4.75,.98,6.97-.57,.42-.29,.91-.6,1.4-.67,9.33-1.33,13.06-8.3,15.98-15.97,1.29-3.38,3.27-4.8,6.99-4.43,3.61,.36,7.29,.24,10.92,.02,2.48-.15,3.91,.76,4.71,3.01,.3,.85,.76,1.65,1.17,2.46,5.81,11.62,5.78,11.71,18,15.95,2,.69,4.55,.57,6.64,.03,4.76-1.23,9.89-4.95,13.95-3.95,4.25,1.05,7.32,6.56,11.13,9.88,2.3,2.01,3.12,3.99,1.56,6.71-.13,.22-.16,.49-.25,.74q-4.67,13.64,1.11,26.6c.47,1.04,1.63,1.95,2.69,2.51,4.01,2.14,8.19,3.97,12.13,6.22,1.06,.6,2.08,2.25,2.14,3.46,.25,4.67,.25,9.37,0,14.04-.07,1.2-1.31,2.41-2.2,3.46-.47,.55-1.34,.76-2.04,1.11q-12.63,6.33-17.62,19.54c-.4,1.07-.24,2.51,.09,3.65,1.27,4.35,2.84,8.61,4.02,12.98,.29,1.09-.06,2.81-.79,3.63-3.2,3.59-6.54,7.07-10.07,10.34-.86,.8-2.75,1.17-3.92,.85-3.87-1.05-7.72-2.31-11.42-3.87-2.76-1.17-5.21-.91-7.81,.18-3.22,1.35-6.54,2.5-9.7,3.97-1.18,.55-2.36,1.6-2.99,2.73-1.96,3.52-3.85,7.1-5.39,10.81-1.16,2.8-2.73,4.15-5.86,3.73-1.92-.26-3.9-.05-5.85-.05Zm-27.98-79.6c.86,16.69,13.9,28.68,30.25,27.79,15.08-.81,27.07-14.39,26.29-29.77-.76-15.02-14.08-27.6-28.44-26.85-16.34,.85-28.87,13.72-28.1,28.82Z"/></g></g></svg>