<?xml version="1.0" encoding="UTF-8"?><svg id="Layer_2" xmlns="http://www.w3.org/2000/svg" viewBox="0 0 294.91 399.1"><defs><style>.cls-1{fill:#fff6db;}</style></defs><g id="Layer_1-2"><g><path class="cls-1" d="M140.51,399.1c-6.07-.51-12.17-.84-18.21-1.57-19.09-2.3-38.16-4.75-57.24-7.18-.99-.13-1.95-.56-2.87-.25,13.04,0,26.09-.19,39.12,.04,38,.66,76,1.27,113.91-2.01,23.8-2.06,46.57-7.98,67.4-20.14,2.79-1.63,5.37-3.62,8.48-5.75-1.31,5.47-4.47,9.25-8.13,12.65-10.2,9.46-22.86,13.72-36.11,16.34-20.95,4.16-42.15,6.4-63.49,7.24-1.54,.06-3.06,.41-4.59,.62h-38.27Z"/><path class="cls-1" d="M137.21,212.96c-6.8-6.9-13.84-13.57-20.32-20.75-8.4-9.31-15.29-19.67-19.79-31.52-5.87-15.46-4.3-29.95,4.7-43.88,7.37-11.41,16.55-21.06,27.27-29.24,10.02-7.66,20.16-15.17,30.5-22.39,21.78-15.21,28.91-36.7,27.23-62.12-.04-.64-.1-1.28-.25-3.05,4.61,6.63,6.94,13.12,8.59,19.8,5.33,21.51-1.01,39.99-16.06,55.39-9.43,9.64-19.97,18.21-30.06,27.2-6.31,5.62-12.61,11.27-19.1,16.67-11.4,9.48-13.77,21.42-11.12,35.49,3.57,18.92,9.91,36.83,17.91,54.23,.52,1.12,.98,2.27,1.46,3.4l-.96,.77Z"/><path class="cls-1" d="M55.4,337.27c-8.82,2.81-17,5.27-25.07,8.08-2.98,1.04-7.2,2.45-6.58,6.04,.35,2.07,4.28,4.47,6.95,5.04,13.2,2.79,26.44,5.74,39.83,7.3,29.13,3.39,58.4,4.22,87.71,2.69,32.91-1.72,65.63-4.92,97.59-13.47,2.75-.74,5.44-1.75,8.13-2.7,4.31-1.52,7.77-3.75,7.07-9.32,5.06,4.35,5.06,9.23-.02,13.18-7.65,5.94-16.77,8.81-25.9,11.37-34.84,9.75-70.57,13.01-106.56,13.26-25.36,.18-50.76-.45-76.09-1.74-16.31-.83-32.73-2.48-48.21-8.49-3.46-1.34-6.91-3.19-9.76-5.54-6.59-5.43-5.91-13.25,1.94-16.49,7.25-2.99,15.06-4.91,22.8-6.32,8.4-1.53,17.01-1.92,26.18-2.88Z"/><path class="cls-1" d="M93.72,219.33c-6.44,1.91-12.96,3.6-19.29,5.81-3.89,1.36-7.63,3.3-11.15,5.44-1.45,.88-2.76,2.95-2.91,4.59-.07,.83,2.47,2.41,4.03,2.77,4.81,1.08,9.68,2.08,14.58,2.49,32.37,2.69,64.75,2.26,97.08-.39,16.28-1.33,32.47-3.68,48.86-5.59-3.7,2.02-7.47,4.35-11.45,6.2-17.5,8.13-36.1,12.31-55.13,14.71-24.49,3.09-49.07,3.15-73.64,1.45-13.46-.93-26.99-2.32-39.64-7.65-2.96-1.25-5.91-2.81-8.42-4.79-6.26-4.93-5.92-12.2,1.13-15.83,5.12-2.63,10.85-4.27,16.47-5.7,5.01-1.28,10.23-1.91,15.4-2.39,7.98-.75,15.98-1.15,23.98-1.69l.1,.57Z"/><path class="cls-1" d="M165.76,228.02c1.72-5.7,3.51-10.84,4.78-16.09,1.71-7.05,.62-13.58-4.21-19.39-6.32-7.61-12.52-15.37-15.75-24.91-4.61-13.59-7.1-27.32,2.91-39.62,4.79-5.89,10.44-11.31,16.46-15.95,15.02-11.56,31.9-19.96,49.39-27.14,.32-.13,.69-.12,.62-.11-10.58,9.35-21.51,18.75-32.1,28.52-4.08,3.76-7.63,8.18-10.98,12.63-7.67,10.18-8.03,20.71-.95,31.48,3.42,5.21,6.76,10.49,9.75,15.96,6.25,11.46,5.89,22.93-.91,34.08-4.86,7.97-11.15,14.66-18.98,20.56Z"/><path class="cls-1" d="M91.42,307.87c-2,6.61-1.56,7.78,4.09,8.98,23.07,4.88,46.28,6.44,69.66,2.23,6.77-1.22,13.56-2.36,20.36-3.38,1.31-.2,2.94-.05,4.05,.59,6.29,3.64,12.46,7.47,18.84,12.33-7.89,2.38-15.69,5.17-23.69,7.07-30.24,7.17-60.56,6.49-90.82,.04-6.6-1.41-13.1-3.44-18.2-8.3-5.17-4.93-4.63-11.63,1.7-14.85,4.07-2.08,8.74-2.99,14.01-4.7Z"/><path class="cls-1" d="M215.36,284.28c-10.61,2.1-20.25,4.11-29.92,5.89-21.4,3.93-42.93,6.89-64.74,6.56-16.43-.25-32.76-1.9-48.24-7.97-3.43-1.35-6.72-3.47-9.53-5.87-3.15-2.69-2.91-6.04,.18-8.76,4.49-3.94,9.99-5.75,16.24-7.3-5.43,6.11-4.71,9.67,2.76,10.87,12.03,1.93,24.21,3.48,36.37,3.86,25.6,.8,50.9-2.33,75.84-8.14,3.23-.75,5.63-.27,8.2,1.74,3.86,3.02,7.98,5.7,12.83,9.12Z"/><path class="cls-1" d="M235.13,291.03c6.07-4.94,12.49-9.42,18-14.83,6.55-6.43,13.15-13.09,18.23-20.66,8.41-12.5,3.93-25.05-10.23-30.29-5.78-2.14-12.05-2.95-18.1-4.35-.95-.22-1.92-.34-2.86-.89,12.86-5.43,25.83-10.2,39.55-3.23,9.49,4.81,12.83,13.9,14.67,23.6,2.18,11.52-2.62,20.67-10.86,28.09-13.6,12.24-30.25,18.37-47.62,22.88-.18,.05-.42-.17-.77-.31Z"/></g></g></svg>