<?xml version="1.0" encoding="UTF-8"?><svg id="Layer_2" xmlns="http://www.w3.org/2000/svg" viewBox="0 0 125.49 124.6"><defs><style>.cls-1{fill:#fff6db;}</style></defs><g id="Layer_1-2"><path class="cls-1" d="M63.29,0c34.07-.05,62.07,27.79,62.2,61.86,.14,34.76-27.77,62.79-62.53,62.74C30.36,124.55-.07,98.23,0,62.15,.07,26.3,30.56-.18,63.29,0Zm-11.3,113.14c-.02-.13,.01-.3-.06-.38-11.41-12.63-19.08-27.08-21.68-44.07-.12-.76-1.47-1.88-2.27-1.9-5.82-.16-11.66-.09-17.47-.09-.27,21.64,23.3,44.64,41.48,46.44ZM10.48,57.88c5.38,0,10.57-.14,15.74,.06,2.85,.11,3.95-.66,4.46-3.71,2.55-15.23,9.08-28.63,19.42-40.14,.7-.78,1.28-1.67,2.11-2.77C32.78,13.98,10.52,36.56,10.48,57.88ZM75.16,11.56c.05,.22,.02,.52,.15,.66,11.5,12.46,18.73,27,21.46,43.78,.11,.7,1.25,1.75,1.94,1.77,5.43,.15,10.87,.08,16.3,.08-.07-20.68-19.35-42.91-39.86-46.3Zm22.91,55.33c-3.01,8.76-5.06,17.19-8.76,24.81-3.7,7.61-9.05,14.42-13.41,21.16,19.05-2.41,38.72-24.98,39.17-45.97h-17Zm-30.18-49.27V57.65h20.03c-2.46-15.32-8.81-28.37-20.03-40.02Zm-.02,89.35c11.2-11.72,17.55-24.73,20.1-40.04h-20.1v40.04Zm-28.84-40.08c2.38,15.07,8.58,27.95,19.34,39.52v-39.52h-19.34ZM58.4,18.06c-10.76,11.8-17.12,24.58-19.32,39.6h19.32V18.06Z"/></g></svg>