<?xml version="1.0" encoding="UTF-8"?><svg id="Layer_2" xmlns="http://www.w3.org/2000/svg" viewBox="0 0 472.94 532.33"><defs><style>.cls-1{fill:#fff6db;}</style></defs><g id="Layer_1-2"><path class="cls-1" d="M467.56,133.53l.35-.2c-3.72-6.44-8.85-12.07-14.49-15.33L257.49,4.89c-11.29-6.52-29.76-6.52-41.04,0L20.52,118C9.23,124.52,0,140.52,0,153.55v226.23c0,6.12,2.05,12.88,5.38,19.02l-.35,.2c3.72,6.44,8.85,12.07,14.49,15.33l195.93,113.12c11.29,6.52,29.76,6.52,41.04,0l195.93-113.12c5.64-3.26,10.77-8.89,14.49-15.33,3.72-6.44,6.03-13.7,6.03-20.22V152.55c0-6.12-2.05-12.88-5.38-19.01ZM236.97,424.65c-87.11,0-157.98-70.87-157.98-157.98S149.86,108.69,236.97,108.69c56.21,0,108.63,30.25,136.81,78.94l-68.37,39.56c-14.1-24.37-40.33-39.51-68.44-39.51-43.56,0-78.99,35.43-78.99,78.99s35.43,78.99,78.99,78.99c28.11,0,54.34-15.14,68.44-39.52l68.37,39.56c-28.18,48.7-80.6,78.95-136.81,78.95Zm157.98-149.2h-17.55v17.55h-17.55v-17.55h-17.55v-17.55h17.55v-17.55h17.55v17.55h17.55v17.55Zm65.82,0h-17.55v17.55h-17.55v-17.55h-17.55v-17.55h17.55v-17.55h17.55v17.55h17.55v17.55Z"/></g></svg>