<?xml version="1.0" encoding="UTF-8"?><svg id="Layer_2" xmlns="http://www.w3.org/2000/svg" viewBox="0 0 1024 1024"><defs><style>.cls-1{fill:#fff6db;}</style></defs><g id="Layer_1-2"><path class="cls-1" d="M0,1024V0c341.33,0,682.67,0,1024,0V1024H0Zm914.15-483.69c-16.2-26.24-35.23-49.03-63.8-61.72-34.41-15.28-70.4-17.73-107.05-10.94-55.31,10.24-105.35,52.83-105.35,122.52,0,34.9,8.56,66.48,32.67,92.7,14.82,16.12,32.36,28.79,51.98,38.25,23.2,11.18,47.01,21.11,70.19,32.32,12.66,6.12,25.37,12.71,36.66,20.99,15.63,11.46,21.08,31.9,14.49,49.21-5.66,14.87-17.26,24.2-32.13,28.41-33.81,9.57-65.54,5.31-93.93-16.63-11.62-8.98-20.24-20.63-28.44-32.6-2.04-2.98-3.76-3.3-6.86-1.49-22.83,13.34-45.7,26.62-68.7,39.66-4.3,2.44-4.44,4.65-2.16,8.57,15.88,27.3,36.38,50.26,64.26,65.49,55.99,30.6,114.98,34.25,175.39,16.28,33.11-9.85,59.36-29.75,76.21-60.52,14.2-25.93,16.6-54.06,13.59-82.9-3.08-29.5-14.78-54.98-36.04-75.93-14.98-14.76-32.16-26.45-50.95-35.57-23.62-11.46-47.8-21.76-71.44-33.18-11.78-5.69-23.9-11.45-34.1-19.44-24.82-19.47-21.44-58.28,6.24-70.61,19.92-8.87,40.36-7.48,58.91,5.21,9.75,6.67,16.94,15.93,23.26,25.81,2.15,3.36,4.07,3.87,7.58,1.57,21.84-14.32,43.82-28.43,65.74-42.63,1.11-.72,2.12-1.58,3.75-2.81ZM269.6,854.13c15.51,32.81,38.54,57.44,70.93,72.45,36.16,16.75,74.15,18.87,112.78,11.34,64.38-12.56,100.62-59.31,101.73-123.29,1.97-113.33,1.03-226.72,1.29-340.08,0-1.58-.15-3.15-.22-4.71h-95.12c0,2.33,0,4.46,0,6.59-.08,27.63-.19,55.27-.23,82.9-.12,83.4-.08,166.8-.48,250.2-.06,11.58-4.03,22.57-11.44,31.84-7.84,9.8-18.71,13.03-30.74,14.26-22.39,2.29-40.64-4.66-54.06-23.05-3.82-5.23-7.26-10.74-10.85-16.14-1.98-2.99-3.88-6.02-5.96-9.25-26.16,15.82-51.74,31.3-77.63,46.96Z"/></g></svg>