<?xml version="1.0" encoding="UTF-8"?><svg id="Layer_2" xmlns="http://www.w3.org/2000/svg" viewBox="0 0 98.35 65.34"><defs><style>.cls-1{fill:#fff6db;}</style></defs><g id="Layer_1-2"><path class="cls-1" d="M98.35,50.53c-.04,3.4-.26,6.77-1.6,9.96-1.39,3.32-3.74,4.87-7.33,4.85-4.97-.02-9.11-1.93-12.58-5.44-1.6-1.62-3.24-3.21-4.99-4.66-4.21-3.47-9.21-5.03-14.55-5.66-6.59-.77-13.15-.75-19.69,.56-5.5,1.1-10.09,3.75-14.08,7.65-2.03,1.99-4.19,3.9-6.55,5.47-2.73,1.82-5.97,2.22-9.22,2.03-3.12-.19-5.02-2.06-6.18-4.79C.1,57.04-.07,53.37,.02,49.68c.25-9.53,2.57-18.64,5.81-27.55,2.2-6.07,4.85-11.93,8.95-16.99,1.02-1.26,2.19-2.53,3.55-3.39,4.22-2.68,8.91-2.12,12.48,.52,7.02,5.18,14.79,5.14,22.78,4.82,1.54-.06,3.09-.27,4.62-.53,2.92-.49,5.53-1.71,7.87-3.52,3.09-2.39,6.7-2.93,10.46-2.68,2.42,.16,4.19,1.68,5.77,3.36,3.47,3.68,5.84,8.06,7.84,12.64,4.6,10.58,7.71,21.55,8.16,33.16,.01,.34,.03,.68,.04,1.01ZM29.21,30.67c.23-.1,.31-.17,.4-.17,1.21-.01,2.42-.02,3.64-.03,1.83-.02,2.94-.89,2.94-2.3,0-1.46-1.05-2.32-2.9-2.35-1.34-.02-2.67,0-3.94,0-.08-.26-.1-.3-.1-.35-.01-1.26-.01-2.51-.03-3.77-.03-1.75-.87-2.79-2.26-2.82-1.45-.03-2.36,1.04-2.39,2.86-.02,1.33,0,2.67,0,3.92-.24,.1-.28,.13-.33,.13-1.26,.01-2.52,.01-3.78,.04-1.82,.04-2.9,.96-2.85,2.4,.05,1.4,1.09,2.22,2.84,2.24,1.34,.02,2.68,0,4.11,0,0,.85,0,1.52,0,2.19,0,.73-.03,1.45,0,2.18,.08,1.61,1,2.61,2.36,2.59,1.33-.02,2.25-1.07,2.28-2.65,.03-1.39,0-2.78,0-4.11Zm42.22-6.01c1.96,0,3.52-1.56,3.48-3.5-.03-1.96-1.6-3.48-3.55-3.45-1.9,.04-3.39,1.54-3.41,3.44-.02,1.96,1.52,3.51,3.48,3.51Zm-7.06,6.97c1.96,.04,3.55-1.5,3.56-3.43,0-1.96-1.53-3.52-3.48-3.52-1.91,0-3.43,1.47-3.48,3.37-.05,1.96,1.45,3.54,3.41,3.58Zm17.53-3.51c-.04-1.96-1.61-3.48-3.56-3.44-1.95,.04-3.47,1.65-3.4,3.59,.07,1.9,1.59,3.36,3.49,3.36,1.96,0,3.51-1.57,3.47-3.51Zm-6.99,6.99c-.03-1.96-1.59-3.49-3.54-3.46-1.95,.03-3.48,1.63-3.42,3.57,.06,1.9,1.57,3.37,3.47,3.38,1.96,0,3.52-1.55,3.49-3.49Z"/></g></svg>